<?xml version="1.0" encoding="UTF-8"?>
<svg xmlns="http://www.w3.org/2000/svg" viewBox="0 0 200 200" width="200" height="200">
  <!-- 背景圆形 -->
  <circle cx="100" cy="100" r="90" fill="#0a0e17" />
  
  <!-- 外环 - 量子环 -->
  <circle cx="100" cy="100" r="80" fill="none" stroke="#0a84ff" stroke-width="3" stroke-dasharray="10 5" />
  
  <!-- 中环 - 渐变 -->
  <circle cx="100" cy="100" r="65" fill="none" stroke="url(#gradientStroke)" stroke-width="4" />
  
  <!-- 内环 - 脉冲效果 -->
  <circle cx="100" cy="100" r="50" fill="none" stroke="#00c8ff" stroke-width="2" stroke-dasharray="1 2" />
  
  <!-- 中心核心 -->
  <circle cx="100" cy="100" r="30" fill="url(#coreGradient)" />
  
  <!-- 发光效果 -->
  <circle cx="100" cy="100" r="25" fill="#5e17eb" opacity="0.6" filter="url(#glow)" />
  
  <!-- 字母A -->
  <path d="M90 130 L100 80 L110 130 M85 115 L115 115" fill="none" stroke="#ffffff" stroke-width="5" stroke-linecap="round" stroke-linejoin="round" />
  
  <!-- 量子粒子 -->
  <circle cx="70" cy="90" r="4" fill="#00c8ff" />
  <circle cx="130" cy="90" r="4" fill="#00c8ff" />
  <circle cx="100" cy="60" r="4" fill="#00c8ff" />
  <circle cx="100" cy="140" r="4" fill="#00c8ff" />
  
  <!-- 连接线 -->
  <line x1="70" y1="90" x2="100" y2="60" stroke="#5e17eb" stroke-width="1.5" />
  <line x1="100" y1="60" x2="130" y2="90" stroke="#5e17eb" stroke-width="1.5" />
  <line x1="130" y1="90" x2="100" y2="140" stroke="#5e17eb" stroke-width="1.5" />
  <line x1="100" y1="140" x2="70" y2="90" stroke="#5e17eb" stroke-width="1.5" />
  
  <!-- 定义渐变 -->
  <defs>
    <linearGradient id="gradientStroke" x1="0%" y1="0%" x2="100%" y2="100%">
      <stop offset="0%" stop-color="#0a84ff" />
      <stop offset="100%" stop-color="#5e17eb" />
    </linearGradient>
    
    <radialGradient id="coreGradient" cx="50%" cy="50%" r="50%" fx="50%" fy="50%">
      <stop offset="0%" stop-color="#00c8ff" />
      <stop offset="100%" stop-color="#0a84ff" />
    </radialGradient>
    
    <filter id="glow" x="-50%" y="-50%" width="200%" height="200%">
      <feGaussianBlur stdDeviation="5" result="blur" />
      <feComposite in="SourceGraphic" in2="blur" operator="over" />
    </filter>
  </defs>
</svg>
